<?xml version="1.0" standalone="no"?><!DOCTYPE svg PUBLIC "-//W3C//DTD SVG 1.1//EN" "http://www.w3.org/Graphics/SVG/1.1/DTD/svg11.dtd"><svg t="1564655690700" class="icon" viewBox="0 0 1024 1024" version="1.1" xmlns="http://www.w3.org/2000/svg" p-id="2440" xmlns:xlink="http://www.w3.org/1999/xlink" width="64" height="64"><defs><style type="text/css"></style></defs><path d="M511.999 511.999m-511.999 0a511.999 511.999 0 1 0 1023.998 0 511.999 511.999 0 1 0-1023.998 0Z" fill="#00CC96" p-id="2441"></path><path d="M614.656003 1013.827901L73.974722 471.900608l372.575639-2.07802-82.286804-82.286803 149.611461 1.664016 79.79478 79.794779h10.596103l-87.688856-87.688856 149.611461 1.662016 85.194832 85.194832 195.533909-1.03801 76.052743 76.052742c-14.130138 233.768283-184.729804 425.148152-408.52399 470.654597h0.210003v-0.004z" fill="#07B587" p-id="2442"></path><path d="M365.301567 378.391695h97.662954c2.07802 0 3.740037 2.286022 3.740037 4.778047 0 2.702026-1.662016 17.662172-3.740037 17.45417l-97.662954-12.468121c-2.07802-0.208002-3.740037-2.286022-3.740036-4.778047 0-2.702026 1.662016-4.778047 3.740036-4.778047v-0.208002z m297.354904 0h-97.662953c-2.07802 0-3.740037 2.286022-3.740037 4.778047 0 2.702026 1.664016 17.662172 3.740037 17.45417l97.662953-12.468121c2.07802-0.208002 3.740037-2.286022 3.740037-4.778047 0-2.702026-1.664016-4.778047-3.740037-4.778047v-0.208002z" fill="#F8F8F8" p-id="2443"></path><path d="M710.864942 497.870862h12.676124v16.830164h-12.676124z" fill="#E6E6E6" p-id="2444"></path><path d="M574.551611 460.472497l372.575638 6.856067s3.740037 7.688075-1.664016 8.312081l-380.469715 46.754457 9.558093-61.714603v-0.208002z" fill="#FFFFFF" p-id="2445"></path><path d="M595.537816 460.888501l351.795435 6.442063s1.246012 2.494024 1.246012 4.570044l-354.497461 3.948039 1.664016-15.170148-0.208002 0.210002z" fill="#EFEFEF" p-id="2446"></path><path d="M674.708589 547.963351a41.558406 37.818369 0 1 0 83.116812 0 41.558406 37.818369 0 1 0-83.116812 0Z" fill="#E6E6E6" p-id="2447"></path><path d="M683.228672 547.963351a33.038323 30.138294 0 1 0 66.076645 0 33.038323 30.138294 0 1 0-66.076645 0Z" fill="#333333" p-id="2448"></path><path d="M299.00692 497.870862h12.676124v16.830164h-12.676124z" fill="#E6E6E6" p-id="2449"></path><path d="M447.796373 460.472497L75.220735 467.328564s-3.740037 7.688075 1.664016 8.312081l380.471715 46.752456-9.558093-61.714602v-0.206002h-0.002z" fill="#FFFFFF" p-id="2450"></path><path d="M427.01617 460.888501L75.220735 467.330564s-1.246012 2.494024-1.246013 4.570044l354.497462 3.948039-1.664016-15.170148 0.208002 0.210002z" fill="#EFEFEF" p-id="2451"></path><path d="M264.732585 547.963351a41.558406 37.818369 0 1 0 83.116812 0 41.558406 37.818369 0 1 0-83.116812 0Z" fill="#E6E6E6" p-id="2452"></path><path d="M273.252668 547.963351a33.038323 30.138294 0 1 0 66.076646 0 33.038323 30.138294 0 1 0-66.076646 0Z" fill="#333333" p-id="2453"></path><path d="M514.08302 265.354591c4.156041 0 7.272071 3.11603 7.480073 6.856067l3.740037 99.948976c0.208002 3.740037-7.064069 6.856067-11.22011 6.856067-4.156041 0-11.430112-3.11603-11.220109-6.856067l3.740036-99.948976c0.208002-3.740037 3.324032-6.856067 7.480073-6.856067z" fill="#FAFAFA" p-id="2454"></path><path d="M514.08302 358.237498c48.000469 0 86.650846 51.326501 86.650847 99.534972s-38.858379 99.534972-86.650847 99.534972c-48.000469 0-86.650846-51.326501-86.650846-99.534972s38.856379-99.534972 86.650846-99.534972z" fill="#E6E6E6" p-id="2455"></path><path d="M514.08302 358.237498c48.000469 0 86.650846 51.326501 86.650847 99.534972 0 3.740037-0.208002 7.688075-0.622007 11.430112-20.156197 23.688231-51.118499 40.728398-86.02684 40.728398s-65.870643-17.038166-86.02684-40.728398a105.201027 105.201027 0 0 1-0.622006-11.430112c-0.004-48.210471 38.852379-99.534972 86.646846-99.534972z" fill="#FFFFFF" p-id="2456"></path><path d="M514.08302 358.237498c48.000469 0 86.650846 51.326501 86.650847 99.534972 0 3.740037-0.208002 7.688075-0.622007 11.430112-20.156197 23.688231-51.118499 40.728398-86.02684 40.728398v-151.693482z" fill="#F7F7F7" p-id="2457"></path><path d="M478.756675 392.523833h73.766721l22.026215 27.63627c-40.310394 4.156041-80.416785 4.362043-120.727179 0l25.144245-27.63627h-0.210002z" fill="#2BB5FF" p-id="2458"></path><path d="M510.96499 392.523833h7.688075l3.740036 30.752301h-14.962146l3.740037-30.962303-0.206002 0.210002z" fill="#FFFFFF" p-id="2459"></path></svg>